<?xml version="1.0" encoding="UTF-8"?>
<svg version="1.1" xmlns="http://www.w3.org/2000/svg" width="574" height="435">
<path d="M0 0 C0.93366635 -0.0075668 1.8673327 -0.0151336 2.82929197 -0.0229297 C5.97574731 -0.04226703 9.12100757 -0.02580669 12.26746655 -0.00964832 C14.5388523 -0.01612207 16.81023273 -0.02477363 19.08160275 -0.03542262 C25.3372474 -0.05830927 31.59252166 -0.04982523 37.84817922 -0.03628337 C43.89742399 -0.02800273 49.94658133 -0.0431148 55.99580344 -0.05748572 C69.13564093 -0.0877129 82.27536413 -0.08911113 95.41522489 -0.0781327 C106.91586413 -0.06855075 118.41645949 -0.06782481 129.91709995 -0.07601833 C131.4587533 -0.07708412 133.00040664 -0.07814967 134.54205998 -0.07921496 C136.86510124 -0.08083601 139.18814248 -0.0824683 141.51118371 -0.08412799 C163.11497128 -0.09938944 184.71874408 -0.10488128 206.32253265 -0.08953094 C207.54461892 -0.08866279 207.54461892 -0.08866279 208.79139379 -0.0877771 C215.40784808 -0.08301222 222.02430214 -0.07795434 228.64075619 -0.07287937 C254.44738822 -0.05328919 280.25386378 -0.06248437 306.06048107 -0.09529591 C335.04548398 -0.13207028 364.03039526 -0.14917408 393.01542157 -0.13588363 C396.10538938 -0.13452611 399.1953572 -0.13322604 402.28532505 -0.13195705 C403.42659109 -0.13146511 403.42659109 -0.13146511 404.59091302 -0.13096322 C416.08262938 -0.12638364 427.57426757 -0.13702961 439.06596851 -0.15520763 C452.13439651 -0.17582435 465.20262921 -0.17527054 478.27104608 -0.14657523 C484.94136662 -0.13248668 491.61140226 -0.12867466 498.28173161 -0.15052509 C504.38550724 -0.17025577 510.48859581 -0.16239567 516.59232356 -0.13233075 C518.80293069 -0.12631177 521.0135932 -0.13046394 523.22415606 -0.14569398 C526.22571838 -0.16486983 529.22489738 -0.14719977 532.22634888 -0.12025452 C533.08789787 -0.13458736 533.94944686 -0.14892021 534.8371034 -0.16368738 C541.29629473 -0.04543812 545.21127078 2.12109913 549.80193615 6.63199902 C553.5452201 11.1656331 553.92831998 14.58892788 553.94174385 20.39753532 C553.94469527 21.09252167 553.9476467 21.78750802 553.95068756 22.50355455 C553.95940095 24.84974079 553.96096123 27.19587786 553.96256542 29.54207897 C553.96729486 31.23426074 553.97244557 32.92644138 553.97798306 34.61862069 C553.99191042 39.28244199 553.99947874 43.94625547 554.00595605 48.61009228 C554.01232115 52.60693961 554.02239205 56.60377406 554.03251671 60.60061338 C554.0658608 73.7697243 554.08736501 86.93884306 554.10571656 100.10798237 C554.11051038 103.53601118 554.11549384 106.96403967 554.12052178 110.39206815 C554.15148995 131.67041672 554.17818094 152.948768 554.19494057 174.2271328 C554.1988902 179.15709151 554.20289317 184.08705017 554.20696545 189.01700878 C554.20797381 190.24235646 554.20898217 191.46770415 554.21002109 192.73018358 C554.22703334 212.58658611 554.26814815 232.44286414 554.31898843 252.29920586 C554.37073235 272.67572271 554.39987851 293.05217548 554.40713745 313.42875749 C554.41180359 324.87337132 554.42659569 336.3177812 554.46688175 347.76233006 C554.50114459 357.50771861 554.5151362 367.25286643 554.50245761 376.99831178 C554.49662211 381.97154835 554.50055745 386.94427554 554.53062725 391.91743565 C554.55793366 396.47067628 554.55753362 401.02304431 554.5351168 405.57630388 C554.53188689 407.22306106 554.53880296 408.8698761 554.55691402 410.51653685 C554.71113718 425.44400483 554.71113718 425.44400483 549.18648964 431.17069036 C547.54553898 432.69629654 547.54553898 432.69629654 546.80193615 435.63199902 C493.79810264 435.73469142 440.79426051 435.83021743 387.79035473 435.88605785 C387.00609732 435.8868862 386.22183991 435.88771454 385.41381712 435.88856798 C368.37050228 435.9065247 351.32718638 435.9231459 334.28386891 435.93839099 C325.92604017 435.94587513 317.56821173 435.95365443 309.21038342 435.96158886 C307.96281532 435.96276569 307.96281532 435.96276569 306.69004382 435.9639663 C279.72342409 435.98954231 252.7568797 436.03461604 225.79030563 436.08978234 C198.08265317 436.14636184 170.37504242 436.18330794 142.66733316 436.19548896 C138.75537355 436.19721793 134.84341409 436.19917175 130.93145466 436.20126247 C129.77654037 436.20186928 129.77654037 436.20186928 128.59829449 436.20248835 C116.1956425 436.20958345 103.79311936 436.23742464 91.39051995 436.27299122 C78.9269441 436.30829111 66.46349619 436.32181285 53.99987208 436.31300728 C47.24458631 436.30884058 40.48970187 436.31517875 33.73447895 436.34723186 C27.55411495 436.37634405 21.37438574 436.37796052 15.19399304 436.35739239 C12.95430126 436.35484884 10.71457052 436.36253328 8.47495591 436.38129811 C5.43657048 436.40528198 2.40049432 436.39246275 -0.63785362 436.37028599 C-1.51308494 436.38604807 -2.38831625 436.40181015 -3.29006973 436.41804987 C-8.76071317 436.32744575 -11.85216687 435.18766049 -15.77782719 431.31264896 C-19.76138571 426.59866882 -20.57319828 422.58998543 -20.57558727 416.52296734 C-20.5799476 415.82729701 -20.58430792 415.13162669 -20.58880037 414.41487545 C-20.59974694 412.08425958 -20.58933776 409.75423652 -20.57901478 407.42362499 C-20.58247158 405.73567639 -20.5872363 404.04773004 -20.59319651 402.35978842 C-20.60573303 397.72162313 -20.59952406 393.08364277 -20.59023786 388.44547677 C-20.58345857 383.44336293 -20.59392303 378.44128119 -20.60217762 373.4391737 C-20.61552911 363.6401186 -20.6126309 353.84113238 -20.6039397 344.04207456 C-20.59716914 336.07935258 -20.59624371 328.11664993 -20.59951115 320.1539259 C-20.6002007 318.45505969 -20.6002007 318.45505969 -20.60090417 316.72187296 C-20.60186333 314.42118354 -20.60283597 312.12049413 -20.60382195 309.81980473 C-20.61237999 288.2377887 -20.6025352 266.65581087 -20.58642085 245.0738011 C-20.5730173 226.54874767 -20.57534527 208.02375064 -20.58917713 189.49869823 C-20.60522562 167.99478492 -20.61155598 146.4909051 -20.60234034 124.98698664 C-20.60138468 122.69468181 -20.60044156 120.40237697 -20.59951115 118.11007214 C-20.59904832 116.98216524 -20.59858549 115.85425834 -20.59810864 114.69217244 C-20.59551656 106.7374802 -20.59989445 98.78280918 -20.60694981 90.82812023 C-20.61535687 81.13621422 -20.61310136 71.44438112 -20.59710757 61.75248349 C-20.58921419 56.80595678 -20.58615145 51.85955171 -20.59605503 46.91302586 C-20.60498031 42.38673155 -20.60010488 37.86067188 -20.58412237 33.33439893 C-20.58076537 31.69518459 -20.58248922 30.05595052 -20.58974974 28.41674882 C-20.59885269 26.19122633 -20.58953614 23.96651087 -20.57558727 21.74103069 C-20.57510022 20.50411653 -20.57461316 19.26720237 -20.57411134 17.99280596 C-20.15994685 14.29134021 -19.04978126 11.83735802 -17.19806385 8.63199902 C-17.85806385 8.30199902 -18.51806385 7.97199902 -19.19806385 7.63199902 C-18.11525135 7.29168652 -18.11525135 7.29168652 -17.01056385 6.94449902 C-14.02942898 5.79829782 -14.02942898 5.79829782 -12.09716159 3.0894677 C-8.06893095 -0.32512937 -5.12451913 -0.06737713 0 0 Z M473.35990429 12.64304638 C471.85686834 12.64397268 471.85686834 12.64397268 470.32346804 12.6449177 C462.49980291 12.64976662 454.67613806 12.65497924 446.85247326 12.66031933 C445.66914036 12.66112082 444.48580746 12.66192232 443.26661599 12.6627481 C412.54380582 12.68368931 381.82100981 12.71078406 351.09821606 12.7486372 C350.40131459 12.74949471 349.70441311 12.75035222 348.98639342 12.75123571 C333.8752856 12.76986271 318.76417908 12.78938992 303.65307372 12.80991997 C296.26967066 12.81994764 288.88626734 12.82978401 281.50286388 12.83951855 C280.7682992 12.84049035 280.03373452 12.84146216 279.2769103 12.84246342 C255.40199072 12.87395655 231.52708254 12.89236688 207.65214576 12.90409148 C183.07019798 12.91623154 158.48829741 12.94140163 133.90638111 12.98307516 C130.4382377 12.98894881 126.97009407 12.99467362 123.50195026 13.00030804 C122.81946775 13.0014215 122.13698523 13.00253495 121.43382143 13.00368215 C110.447242 13.02122338 99.46069888 13.0249988 88.47410733 13.02362822 C77.44934693 13.022546 66.42466561 13.03623854 55.39993625 13.0641633 C49.42659932 13.07885843 43.45343835 13.08696974 37.48008633 13.0778017 C32.01750145 13.06955878 26.55527133 13.07954766 21.09273929 13.10433564 C19.11217139 13.11005275 17.13157022 13.10895254 15.15101206 13.10051146 C12.46755675 13.09005002 9.7853118 13.10397148 7.10193825 13.12419033 C6.32560662 13.11528662 5.549275 13.10638291 4.74941817 13.09720939 C1.09596653 13.15034893 -1.02659666 13.52503029 -4.15431398 15.47623706 C-7.60103467 19.11186266 -7.32386765 22.34977848 -7.3266983 27.15603733 C-7.32845134 27.82490849 -7.33020438 28.49377964 -7.33201054 29.18291962 C-7.33668891 31.44024828 -7.33420033 33.69751305 -7.33177662 35.95484447 C-7.33364367 37.58316686 -7.33594394 39.21148879 -7.33864194 40.83981001 C-7.34477948 45.32700565 -7.34462406 49.81418271 -7.34344757 54.30138159 C-7.34324405 59.13582842 -7.34875759 63.97026921 -7.35350513 68.80471325 C-7.36182292 78.28097137 -7.36456048 87.75722327 -7.36511751 97.23348473 C-7.36559213 104.933601 -7.36764418 112.63371521 -7.37081814 120.33383083 C-7.37962775 142.14910283 -7.38423703 163.96436991 -7.38348766 185.7796437 C-7.38344771 186.95649713 -7.38340775 188.13335055 -7.38336658 189.3458662 C-7.3833257 190.52415098 -7.38328482 191.70243576 -7.3832427 192.91642614 C-7.38283613 212.01821847 -7.39240764 231.11999109 -7.40650495 250.22177772 C-7.42085468 269.81970331 -7.42777591 289.41761928 -7.42691118 309.01555026 C-7.42657872 320.02459363 -7.42934692 331.03361634 -7.44008923 342.04265499 C-7.44917578 351.41514559 -7.45138471 360.78760617 -7.4445798 370.16009925 C-7.44130526 374.94444008 -7.44129146 379.72872325 -7.44993305 384.51305866 C-7.45775786 388.89010303 -7.45640805 393.26704365 -7.44764892 397.64408536 C-7.44610502 399.23021189 -7.44796332 400.81634601 -7.453509 402.4024636 C-7.46053477 404.55386193 -7.45530271 406.70489284 -7.44695282 408.85627842 C-7.44717019 410.05266984 -7.44738756 411.24906127 -7.44761151 412.48170698 C-7.12161923 416.59703666 -6.36720387 419.30117864 -3.62603164 422.42142755 C0.03477868 424.24668757 3.64887601 424.03833032 7.64942074 424.0011425 C9.01126369 424.0063348 9.01126369 424.0063348 10.40061861 424.011632 C13.4651167 424.01961887 16.52914883 424.00607576 19.59362316 423.99276257 C21.80384471 423.99406992 24.0140658 423.99669503 26.22428441 424.00053006 C32.31514809 424.00726081 38.40585451 423.99520678 44.49669814 423.98019588 C50.38506371 423.96860268 56.27341161 423.97107507 62.16178571 423.97324141 C74.20943673 423.97718558 86.25703844 423.96714952 98.3046751 423.94918919 C110.23605881 423.93144768 122.16742198 423.91989328 134.09881878 423.91663074 C134.84023935 423.91642453 135.58165992 423.91621831 136.34554777 423.91600584 C140.11073595 423.91499086 143.87592414 423.9140867 147.64111236 423.91322521 C174.3208736 423.90692133 201.000608 423.88670189 227.68035412 423.85831738 C253.60190214 423.8307713 279.52344283 423.80951692 305.44500256 423.79679394 C306.24379636 423.79639936 307.04259017 423.79600478 307.86558985 423.79559825 C315.88729028 423.79164274 323.90899076 423.78781529 331.93069129 423.78408167 C348.27231513 423.77647271 364.6139385 423.76800895 380.95556164 423.75902843 C382.08264276 423.75841063 382.08264276 423.75841063 383.2324932 423.75778034 C433.42231891 423.730171 483.61212891 423.68257222 533.80193615 423.63199902 C533.80193615 422.97199902 533.80193615 422.31199902 533.80193615 421.63199902 C534.42068615 421.48762402 535.03943615 421.34324902 535.67693615 421.19449902 C537.83451937 420.70047676 537.83451937 420.70047676 539.80193615 419.63199902 C540.92711658 415.72744761 540.92913769 411.91984959 540.93336391 407.87748241 C540.93541655 407.20799194 540.93746918 406.53850147 540.93958402 405.84872341 C540.94524654 403.60133322 540.9437977 401.35400446 540.94237804 399.10660839 C540.94496209 397.48068452 540.94797536 395.85476128 540.95138144 394.22883892 C540.95944968 389.75756546 540.96124091 385.28630806 540.96197891 380.81502819 C540.9638297 375.99424846 540.97137701 371.17347706 540.97811413 366.35270214 C540.99169521 355.81167751 540.99772139 345.27065668 541.00212479 334.72962475 C541.00488674 328.15061392 541.00912393 321.57160456 541.01362896 314.99259472 C541.02581973 296.78397749 541.03612047 278.57536145 541.03950405 260.36674023 C541.0398334 258.6187821 541.0398334 258.6187821 541.0401694 256.83551168 C541.04038768 255.66739997 541.04060596 254.49928826 541.04083085 253.29577923 C541.04127432 250.92868582 541.04172088 248.56159242 541.04217052 246.19449902 C541.04250267 244.43325428 541.04250267 244.43325428 541.04284152 242.63642883 C541.04679246 223.59618647 541.06425634 204.5559823 541.08753005 185.5157547 C541.11122143 165.97652632 541.12370484 146.43731713 541.12487197 126.89807415 C541.12578981 115.92370046 541.13156968 104.94937659 541.14969158 93.97501659 C541.16506249 84.63367346 541.17023076 75.29239555 541.16195348 65.95104218 C541.15803671 61.18286143 541.15902656 56.41481216 541.17301083 51.64664745 C541.18568789 47.2844445 541.18460714 42.92247266 541.17242011 38.56027031 C541.17045236 36.97958537 541.17359095 35.39888441 541.18226448 33.81822205 C541.19328828 31.67403684 541.18591863 29.53067721 541.17387295 27.38651562 C541.17447004 26.1942461 541.17506712 25.00197659 541.17568231 23.77357769 C540.64655595 19.3259277 538.92515731 16.75522018 535.80193615 13.63199902 C532.85243568 12.62992514 530.15031009 12.52393469 527.05193615 12.56949902 C525.85310802 12.58303417 525.85310802 12.58303417 524.63006115 12.59684277 C523.72513927 12.61424511 523.72513927 12.61424511 522.80193615 12.63199902 C522.80193615 13.29199902 522.80193615 13.95199902 522.80193615 14.63199902 C521.15193615 14.63199902 519.50193615 14.63199902 517.80193615 14.63199902 C517.47193615 13.97199902 517.14193615 13.31199902 516.80193615 12.63199902 C502.32125418 12.63048726 487.84058334 12.63393657 473.35990429 12.64304638 Z " fill="#f43f5e" transform="translate(20.198063850402832,-0.6319990158081055)"/>
<path d="M0 0 C1.25025719 -0.00855011 1.25025719 -0.00855011 2.52577209 -0.01727295 C4.29019907 -0.02672544 6.05464371 -0.03325792 7.8190918 -0.03710938 C10.5209826 -0.04682404 13.22211565 -0.07784804 15.92382812 -0.109375 C17.63671422 -0.11590413 19.34960577 -0.12115496 21.0625 -0.125 C21.87194565 -0.1373468 22.6813913 -0.1496936 23.5153656 -0.16241455 C29.1711446 -0.13990639 29.1711446 -0.13990639 31.3349762 1.60040283 C32.59765625 3.203125 32.59765625 3.203125 32.59765625 5.203125 C33.25765625 5.203125 33.91765625 5.203125 34.59765625 5.203125 C34.59765625 38.863125 34.59765625 72.523125 34.59765625 107.203125 C38.88765625 107.203125 43.17765625 107.203125 47.59765625 107.203125 C48.91765625 107.863125 50.23765625 108.523125 51.59765625 109.203125 C53.09481534 114.57528409 53.09481534 114.57528409 52.59765625 117.203125 C50.55830066 120.05486801 48.91182415 121.9277583 45.38644505 122.66645539 C42.54488941 122.8474807 39.74094226 122.86432338 36.89367676 122.83131409 C35.80262398 122.83840847 34.71157121 122.84550286 33.58745623 122.85281223 C29.92448434 122.87044123 26.26256662 122.85226112 22.59960938 122.83422852 C19.97647111 122.83936541 17.35333628 122.84664494 14.73020935 122.85591125 C8.34092945 122.87429444 1.95195528 122.86577122 -4.43731511 122.84782303 C-9.62977643 122.83379971 -14.82215473 122.82990364 -20.01463318 122.8332653 C-21.12298376 122.83398147 -21.12298376 122.83398147 -22.25372526 122.8347121 C-23.75476795 122.83573843 -25.25581063 122.83679378 -26.75685328 122.83787786 C-40.03115999 122.84644629 -53.30531906 122.82976537 -66.57958984 122.80004883 C-79.46148887 122.77121104 -92.3431752 122.76412766 -105.22509766 122.77954102 C-119.2512492 122.79630046 -133.27729975 122.80034004 -147.30345392 122.78283066 C-148.79898738 122.78098626 -150.29452084 122.77915153 -151.79005432 122.77732658 C-152.52589326 122.77641449 -153.26173221 122.7755024 -154.0198693 122.77456268 C-159.20633297 122.76895567 -164.39274737 122.77226598 -169.57920837 122.77887154 C-176.55928866 122.78740849 -183.53905668 122.77445337 -190.51908684 122.74702263 C-193.08417283 122.74012311 -195.64928742 122.74005748 -198.21437263 122.74723816 C-201.70938188 122.75589621 -205.20343514 122.74003705 -208.69836426 122.7177887 C-210.22972684 122.73014985 -210.22972684 122.73014985 -211.79202604 122.74276072 C-216.13587432 122.69154125 -218.7263054 122.59202168 -222.54790497 120.39361477 C-224.40234375 118.203125 -224.40234375 118.203125 -224.77734375 114.640625 C-224.40234375 111.203125 -224.40234375 111.203125 -223.40234375 108.203125 C-219.56510203 107.29898827 -216.02732101 107.09735602 -212.08984375 107.140625 C-211.02121094 107.14964844 -209.95257813 107.15867187 -208.8515625 107.16796875 C-207.63919922 107.18537109 -207.63919922 107.18537109 -206.40234375 107.203125 C-206.43787354 105.92671143 -206.47340332 104.65029785 -206.51000977 103.33520508 C-206.64053786 98.59234503 -206.76364159 93.84931612 -206.88452148 89.10620117 C-206.9378384 87.05471534 -206.99315938 85.00328057 -207.05053711 82.9519043 C-207.13273618 80.00060024 -207.20768882 77.0491867 -207.28125 74.09765625 C-207.30828506 73.18289017 -207.33532013 72.26812408 -207.36317444 71.32563782 C-207.46105449 67.13445381 -207.50476169 63.28986626 -206.40234375 59.203125 C-205.74234375 59.203125 -205.08234375 59.203125 -204.40234375 59.203125 C-204.17546875 58.584375 -203.94859375 57.965625 -203.71484375 57.328125 C-201.94834259 54.4680755 -200.6035227 54.18814479 -197.40234375 53.203125 C-192.69190068 52.81231225 -187.98001881 52.8315032 -183.25561523 52.83251953 C-180.97498991 52.82814446 -178.69629934 52.7917839 -176.41601562 52.75390625 C-174.95443365 52.74803737 -173.49284255 52.74406845 -172.03125 52.7421875 C-170.05233765 52.72986084 -170.05233765 52.72986084 -168.03344727 52.71728516 C-163.7820023 53.28612638 -161.67069424 54.4617723 -158.40234375 57.203125 C-156.54974579 60.17438247 -156.15620161 62.40525522 -156.17529297 65.87988281 C-156.17544403 66.80053528 -156.17559509 67.72118774 -156.17575073 68.66973877 C-156.1860733 69.65528748 -156.19639587 70.64083618 -156.20703125 71.65625 C-156.20986115 72.67160828 -156.21269104 73.68696655 -156.21560669 74.73309326 C-156.22679374 77.97322416 -156.25189584 81.21307776 -156.27734375 84.453125 C-156.28737545 86.65103767 -156.29650097 88.84895468 -156.3046875 91.046875 C-156.32672829 96.43239837 -156.36124823 101.81771468 -156.40234375 107.203125 C-151.78234375 107.203125 -147.16234375 107.203125 -142.40234375 107.203125 C-142.40234375 79.483125 -142.40234375 51.763125 -142.40234375 23.203125 C-141.74234375 23.203125 -141.08234375 23.203125 -140.40234375 23.203125 C-140.13421875 22.56375 -139.86609375 21.924375 -139.58984375 21.265625 C-138.40234375 19.203125 -138.40234375 19.203125 -135.40234375 18.203125 C-130.3119058 17.92656589 -125.2220029 17.88971602 -120.12475586 17.85302734 C-118.44004493 17.83647716 -116.75540395 17.80919906 -115.07104492 17.77099609 C-112.63293311 17.71603523 -110.19646155 17.6943267 -107.7578125 17.6796875 C-107.01073532 17.65701813 -106.26365814 17.63434875 -105.49394226 17.61099243 C-101.56431562 17.62675293 -98.98748377 18.13456342 -95.94262695 20.54833984 C-91.93063828 24.74116684 -92.26237436 28.48767397 -92.28881836 33.97924805 C-92.28867233 34.76972534 -92.28852631 35.56020264 -92.28837585 36.37463379 C-92.28907266 38.988065 -92.2968542 41.60142499 -92.3046875 44.21484375 C-92.30655251 46.02659567 -92.30797602 47.8383481 -92.30897522 49.65010071 C-92.3127939 54.41929516 -92.32261867 59.18845918 -92.3336792 63.9576416 C-92.34390726 68.82397042 -92.34847583 73.69030416 -92.35351562 78.55664062 C-92.36424149 88.10548213 -92.38131015 97.65430103 -92.40234375 107.203125 C-88.11234375 107.203125 -83.82234375 107.203125 -79.40234375 107.203125 C-79.41281738 105.35114502 -79.42329102 103.49916504 -79.43408203 101.59106445 C-79.46636422 95.46432258 -79.48932786 89.33760089 -79.50596809 83.21079731 C-79.5163944 79.4970098 -79.53053244 75.78331452 -79.55322266 72.06958008 C-79.57499231 68.48397607 -79.58692105 64.89846065 -79.59209824 61.31279564 C-79.5957866 59.94649041 -79.60298909 58.5801899 -79.61380386 57.2139225 C-79.62837271 55.29671605 -79.62916113 53.37942 -79.62939453 51.4621582 C-79.63383575 50.37183792 -79.63827698 49.28151764 -79.64285278 48.15815735 C-79.29853557 43.92767801 -78.22869746 41.16276157 -75.46484375 37.953125 C-71.61496779 34.68656358 -67.60415231 35.04260691 -62.8125 35.03515625 C-61.70109901 35.03016365 -61.70109901 35.03016365 -60.56724548 35.02507019 C-59.00129822 35.02001147 -57.43534019 35.01766154 -55.86938477 35.01782227 C-53.47719522 35.01563629 -51.08546732 34.9974713 -48.69335938 34.97851562 C-47.17057449 34.97558136 -45.64778742 34.97359678 -44.125 34.97265625 C-43.41134781 34.96547073 -42.69769562 34.95828522 -41.9624176 34.95088196 C-38.2753498 34.96779473 -35.53539813 35.16802596 -32.40234375 37.203125 C-32.40234375 37.863125 -32.40234375 38.523125 -32.40234375 39.203125 C-31.74234375 39.203125 -31.08234375 39.203125 -30.40234375 39.203125 C-28.79515058 43.45412928 -28.15646884 46.94727099 -28.17529297 51.48388672 C-28.17551956 53.31510574 -28.17551956 53.31510574 -28.17575073 55.18331909 C-28.1860733 56.48665192 -28.19639587 57.78998474 -28.20703125 59.1328125 C-28.21076573 60.49187003 -28.21361065 61.85093026 -28.21560669 63.20999146 C-28.22320892 66.77086949 -28.24282765 70.33158197 -28.26501465 73.89239502 C-28.28554696 77.53240724 -28.29462413 81.17244645 -28.3046875 84.8125 C-28.32607714 91.94278216 -28.36123109 99.07292529 -28.40234375 106.203125 C-24.11234375 106.533125 -19.82234375 106.863125 -15.40234375 107.203125 C-15.41344681 105.94889236 -15.42454987 104.69465973 -15.43598938 103.40242004 C-15.53731329 91.58699313 -15.61228439 79.77165428 -15.66140461 67.95589161 C-15.68750681 61.88113624 -15.72291728 55.80673137 -15.77954102 49.73217773 C-15.83383699 43.87071471 -15.86375959 38.00958899 -15.87672997 32.14789391 C-15.88597406 29.91072974 -15.90402558 27.6735842 -15.93099403 25.43656349 C-15.96725115 22.30471418 -15.97229034 19.17426149 -15.9699707 16.04223633 C-15.99693527 14.65256401 -15.99693527 14.65256401 -16.02444458 13.2348175 C-15.98799665 8.69188345 -15.8929045 6.82433385 -12.99186707 3.15068054 C-8.64674477 -0.11724408 -5.28190073 0.02766268 0 0 Z M-0.40234375 15.203125 C-0.40234375 45.563125 -0.40234375 75.923125 -0.40234375 107.203125 C6.19765625 107.203125 12.79765625 107.203125 19.59765625 107.203125 C19.59765625 76.843125 19.59765625 46.483125 19.59765625 15.203125 C12.99765625 15.203125 6.39765625 15.203125 -0.40234375 15.203125 Z M-127.40234375 33.203125 C-127.40234375 57.623125 -127.40234375 82.043125 -127.40234375 107.203125 C-120.80234375 107.203125 -114.20234375 107.203125 -107.40234375 107.203125 C-107.40234375 82.783125 -107.40234375 58.363125 -107.40234375 33.203125 C-114.00234375 33.203125 -120.60234375 33.203125 -127.40234375 33.203125 Z M-63.40234375 50.203125 C-64.65484317 51.23285975 -64.65484317 51.23285975 -64.52259827 53.44935608 C-64.52037766 54.44196945 -64.51815704 55.43458282 -64.51586914 56.45727539 C-64.51579361 57.57836197 -64.51571808 58.69944855 -64.51564026 59.85450745 C-64.51047897 61.0742778 -64.50531769 62.29404816 -64.5 63.55078125 C-64.49858505 64.79234482 -64.4971701 66.03390839 -64.49571228 67.31309509 C-64.49104966 70.61917991 -64.48205872 73.92519646 -64.4710083 77.23126221 C-64.46079202 80.6027365 -64.4562142 83.97421783 -64.45117188 87.34570312 C-64.4401177 93.96486518 -64.42284035 100.58398571 -64.40234375 107.203125 C-57.47234375 107.203125 -50.54234375 107.203125 -43.40234375 107.203125 C-43.40234375 88.393125 -43.40234375 69.583125 -43.40234375 50.203125 C-50.00234375 50.203125 -56.60234375 50.203125 -63.40234375 50.203125 Z M-191.40234375 68.203125 C-191.40234375 81.073125 -191.40234375 93.943125 -191.40234375 107.203125 C-184.47234375 107.203125 -177.54234375 107.203125 -170.40234375 107.203125 C-170.3794359 101.80959911 -170.35950849 96.41624079 -170.34741211 91.02270508 C-170.34237144 89.18643625 -170.33553898 87.35017146 -170.3269043 85.51391602 C-170.31482703 82.88036099 -170.30911294 80.24685884 -170.3046875 77.61328125 C-170.29952621 76.78723892 -170.29436493 75.96119659 -170.28904724 75.11012268 C-170.2888517 73.14076132 -170.34030223 71.17150886 -170.40234375 69.203125 C-171.39717577 67.98669208 -171.39717577 67.98669208 -173.35180664 68.08959961 C-174.60078735 68.09745483 -174.60078735 68.09745483 -175.875 68.10546875 C-176.68461182 68.10796631 -177.49422363 68.11046387 -178.32836914 68.11303711 C-179.36340576 68.12214111 -180.39844238 68.13124512 -181.46484375 68.140625 C-184.74421875 68.16125 -188.02359375 68.181875 -191.40234375 68.203125 Z " fill="#bcedcc" transform="translate(466.40234375,270.796875)"/>
<path d="M0 0 C1.13928955 0.00491455 2.2785791 0.0098291 3.45239258 0.01489258 C12.05759598 0.13431573 19.88494461 0.91419804 28.1875 3.3125 C30.03988281 3.84037109 30.03988281 3.84037109 31.9296875 4.37890625 C42.72013139 7.72195788 52.54095094 12.45687549 62.1875 18.3125 C62.8475 18.6425 63.5075 18.9725 64.1875 19.3125 C64.1875 19.9725 64.1875 20.6325 64.1875 21.3125 C65.03248047 21.68375 65.03248047 21.68375 65.89453125 22.0625 C86.4380375 33.26168569 99.92397304 59.42890962 106.36328125 81.01953125 C106.63527344 82.10621094 106.90726563 83.19289063 107.1875 84.3125 C107.45240234 85.35361938 107.45240234 85.35361938 107.72265625 86.41577148 C114.03737635 113.91017558 108.35859524 144.50509447 93.6875 168.375 C92.54785106 170.03965575 91.38177594 171.68658996 90.1875 173.3125 C89.29998047 174.53066406 89.29998047 174.53066406 88.39453125 175.7734375 C69.21232169 200.84873824 42.54222801 215.41911888 11.48828125 219.80859375 C-14.27845871 223.03299047 -42.80815285 215.61056866 -63.5625 199.875 C-64.42101562 199.16537109 -64.42101562 199.16537109 -65.296875 198.44140625 C-66.93636836 197.09727243 -66.93636836 197.09727243 -69.8125 196.3125 C-70.99358907 195.19890173 -72.16700725 194.07540151 -73.2890625 192.90234375 C-75.11285841 190.99904905 -76.99540172 189.16065518 -78.875 187.3125 C-81.74071105 184.45218577 -84.34978973 181.53296728 -86.8125 178.3125 C-87.4725 177.6525 -88.1325 176.9925 -88.8125 176.3125 C-90.35025454 173.77670422 -91.81207765 171.20326874 -93.27734375 168.625 C-94.7599403 166.06846149 -94.7599403 166.06846149 -97.8125 164.3125 C-98.15403937 162.64749557 -98.48699498 160.98071323 -98.8125 159.3125 C-99.3075 158.85875 -99.8025 158.405 -100.3125 157.9375 C-102.61067643 155.44780887 -102.33732627 152.63871613 -102.8125 149.3125 C-103.41058135 147.90492251 -104.03901017 146.5100764 -104.6875 145.125 C-114.3961625 121.56200523 -111.71506834 92.11671422 -102.41552734 68.99755859 C-93.71972654 48.63435248 -81.05343064 32.65826068 -63.32958984 19.4465332 C-62.13119451 18.55072594 -60.9556406 17.62436581 -59.7890625 16.6875 C-52.06600764 11.3149401 -42.48636834 8.01331879 -33.625 5 C-32.92616699 4.75789795 -32.22733398 4.5157959 -31.50732422 4.26635742 C-21.18427704 0.88458729 -10.81493995 -0.0556349 0 0 Z M-72.8125 48.3125 C-90.34425625 69.67334498 -97.16863206 95.21732163 -94.59423828 122.63720703 C-91.52070895 146.39899175 -78.97822297 167.87603751 -60.8125 183.3125 C-59.8225 183.3125 -58.8325 183.3125 -57.8125 183.3125 C-57.4825 184.3025 -57.1525 185.2925 -56.8125 186.3125 C-55.8225 186.3125 -54.8325 186.3125 -53.8125 186.3125 C-53.8125 186.9725 -53.8125 187.6325 -53.8125 188.3125 C-52.4925 188.3125 -51.1725 188.3125 -49.8125 188.3125 C-49.565 188.93125 -49.3175 189.55 -49.0625 190.1875 C-47.54665308 192.76443976 -46.49916282 193.0891509 -43.8125 194.3125 C-43.04035156 194.69148437 -42.26820312 195.07046875 -41.47265625 195.4609375 C-17.31761485 206.86647584 8.97179465 208.14298441 34.12939453 199.12792969 C42.61772817 195.76481766 51.1586276 191.14132101 58.1875 185.3125 C58.1875 184.6525 58.1875 183.9925 58.1875 183.3125 C60.6625 182.3225 60.6625 182.3225 63.1875 181.3125 C63.1875 180.6525 63.1875 179.9925 63.1875 179.3125 C63.80625 179.065 64.425 178.8175 65.0625 178.5625 C67.57460296 177.08479238 67.94857344 175.87294823 69.1875 173.3125 C70.1775 172.9825 71.1675 172.6525 72.1875 172.3125 C88.38712174 152.89648847 97.16488454 127.42869613 95.00146484 102.13769531 C93.73453612 89.56129895 90.78221104 78.63954599 85.1875 67.3125 C84.67445313 66.25804687 84.16140625 65.20359375 83.6328125 64.1171875 C71.66820935 41.7951667 50.82801648 25.94161864 26.98046875 18.28515625 C-10.0221288 8.7963336 -47.32085854 19.50912392 -72.8125 48.3125 Z " fill="#ffefc4" transform="translate(164.8125,42.6875)"/>
<path d="M0 0 C12.56959905 10.48887844 21.6242827 22.82393039 26.87890625 38.40234375 C27.19730469 39.335625 27.51570312 40.26890625 27.84375 41.23046875 C33.79673431 62.18936283 30.04926902 84.03816193 19.91015625 102.8828125 C17.58429554 107.01999209 14.90363288 110.75147945 11.87890625 114.40234375 C11.21890625 115.39234375 10.55890625 116.38234375 9.87890625 117.40234375 C9.21890625 117.40234375 8.55890625 117.40234375 7.87890625 117.40234375 C7.54246094 118.26085937 7.54246094 118.26085937 7.19921875 119.13671875 C0.65735069 130.3624095 -17.86570505 137.44026729 -29.74609375 140.90234375 C-51.65175638 146.15411404 -73.63600379 141.67134718 -92.68359375 130.15234375 C-106.28228121 121.18340886 -116.45374956 109.25802002 -123.12109375 94.40234375 C-123.12109375 93.41234375 -123.12109375 92.42234375 -123.12109375 91.40234375 C-123.78109375 91.40234375 -124.44109375 91.40234375 -125.12109375 91.40234375 C-128.69448277 75.60301996 -128.69448277 75.60301996 -129.12109375 68.40234375 C-129.17394531 67.61214844 -129.22679687 66.82195312 -129.28125 66.0078125 C-129.9819083 45.68872173 -122.75213802 28.62666482 -111.12109375 12.40234375 C-110.56679687 11.59925781 -110.0125 10.79617187 -109.44140625 9.96875 C-108.78785156 9.19337891 -108.78785156 9.19337891 -108.12109375 8.40234375 C-107.46109375 8.40234375 -106.80109375 8.40234375 -106.12109375 8.40234375 C-105.92773438 7.85191406 -105.734375 7.30148438 -105.53515625 6.734375 C-98.25618681 -5.26989229 -79.32674901 -12.23928615 -66.37109375 -15.53515625 C-42.25425188 -19.92003659 -19.34394085 -15.15737738 0 0 Z M-94.93359375 16.65234375 C-107.08058552 29.48096527 -113.82932217 45.18322607 -114.37109375 62.90234375 C-113.90643968 78.09926494 -108.73699888 91.01232456 -100.12109375 103.40234375 C-99.39921875 102.65984375 -98.67734375 101.91734375 -97.93359375 101.15234375 C-95.12109375 98.40234375 -95.12109375 98.40234375 -92.74609375 96.58984375 C-88.40537809 92.9725807 -83.93111087 88.8323951 -82.12109375 83.40234375 C-80.80486778 82.70250703 -79.46856612 82.03994897 -78.12109375 81.40234375 C-76.24642464 79.83184365 -76.24642464 79.83184365 -74.44921875 77.99609375 C-73.45341797 77.00416016 -73.45341797 77.00416016 -72.4375 75.9921875 C-71.41462891 74.95771484 -71.41462891 74.95771484 -70.37109375 73.90234375 C-69.67371094 73.21269531 -68.97632813 72.52304688 -68.2578125 71.8125 C-67.59910156 71.15121094 -66.94039062 70.48992187 -66.26171875 69.80859375 C-65.65875977 69.20337891 -65.05580078 68.59816406 -64.43457031 67.97460938 C-62.90738654 66.48798343 -62.90738654 66.48798343 -63.12109375 64.40234375 C-62.13109375 64.07234375 -61.14109375 63.74234375 -60.12109375 63.40234375 C-60.12109375 62.74234375 -60.12109375 62.08234375 -60.12109375 61.40234375 C-59.13109375 61.07234375 -58.14109375 60.74234375 -57.12109375 60.40234375 C-55.79155583 57.74326791 -56.00123344 55.73669007 -56.00756836 52.75927734 C-56.00764389 51.57820404 -56.00771942 50.39713074 -56.00779724 49.18026733 C-56.01553917 47.25992172 -56.01553917 47.25992172 -56.0234375 45.30078125 C-56.02485245 43.99404449 -56.0262674 42.68730774 -56.02772522 41.3409729 C-56.03154481 37.86558117 -56.04137033 34.39023118 -56.0524292 30.91485596 C-56.06265532 27.3690243 -56.06722542 23.8231859 -56.07226562 20.27734375 C-56.08299309 13.31899326 -56.10006283 6.36067051 -56.12109375 -0.59765625 C-70.71856555 -0.8325581 -84.55050648 6.72192513 -94.93359375 16.65234375 Z M-42.12109375 -0.59765625 C-42.12109375 17.88234375 -42.12109375 36.36234375 -42.12109375 55.40234375 C-23.31109375 55.40234375 -4.50109375 55.40234375 14.87890625 55.40234375 C12.66660645 37.70394531 4.88291459 23.34578356 -9.125 11.9609375 C-19.47186475 4.207098 -29.2090123 0.6935519 -42.12109375 -0.59765625 Z M-51.12109375 74.40234375 C-51.12109375 75.06234375 -51.12109375 75.72234375 -51.12109375 76.40234375 C-51.71913818 76.66990479 -52.31718262 76.93746582 -52.93334961 77.21313477 C-55.15795308 78.42237966 -56.43882378 79.56202188 -58.125 81.4296875 C-58.69210693 82.0484375 -59.25921387 82.6671875 -59.84350586 83.3046875 C-60.45073486 83.97628906 -61.05796387 84.64789063 -61.68359375 85.33984375 C-70.54506104 94.97961507 -79.81494889 104.19425359 -89.12109375 113.40234375 C-79.72862321 123.20059133 -65.66370357 127.40468224 -52.4230957 127.7512207 C-43.95126528 127.83020353 -36.08357299 127.58733544 -28.12109375 124.40234375 C-27.3734375 124.12390625 -26.62578125 123.84546875 -25.85546875 123.55859375 C-9.97052892 117.11575102 3.35766189 105.38332578 10.125 89.47265625 C11.11360032 86.80017626 12.01452509 84.1171087 12.87890625 81.40234375 C13.29140625 80.28859375 13.70390625 79.17484375 14.12890625 78.02734375 C14.89714292 75.33851542 14.93463893 73.17968878 14.87890625 70.40234375 C6.86425279 70.30963168 -1.15017634 70.23857337 -9.16523361 70.19509506 C-12.88704123 70.17422671 -16.60848177 70.14592394 -20.33007812 70.10058594 C-23.92218885 70.05709962 -27.5139467 70.03320098 -31.10630035 70.02283478 C-32.47626552 70.01544825 -33.84621152 70.00102374 -35.21602631 69.97942352 C-37.13568764 69.95035895 -39.05570465 69.94870959 -40.97558594 69.94824219 C-42.06812683 69.93935974 -43.16066772 69.93047729 -44.28631592 69.92132568 C-47.78652961 70.51525795 -48.97993275 71.62421263 -51.12109375 74.40234375 Z " fill="#ffaeae" transform="translate(214.12109375,89.59765625)"/>
<path d="M0 0 C1.24117993 3.7235398 1.80843027 7.14673424 1 11 C-1.75 13.75 -1.75 13.75 -5 16 C-6.33471718 17.33194805 -7.66789611 18.66543835 -9 20 C-10.69297668 21.41441982 -12.4025922 22.8090716 -14.125 24.1875 C-17.84365291 27.20089115 -21.46386993 30.27455228 -25 33.5 C-29.3227825 37.43914412 -33.80236174 41.13809639 -38.34765625 44.81640625 C-40.78683663 46.8245091 -43.15213041 48.88649885 -45.5 51 C-50.51979663 55.5142056 -55.7448877 59.76406099 -61 64 C-61.85078125 64.72703125 -62.7015625 65.4540625 -63.578125 66.203125 C-65.97437377 67.98098699 -67.09775486 68.6424939 -70 69 C-77.5996322 66.38595117 -84.57258114 61.28808048 -91.3125 57 C-93.42027393 55.67009894 -95.52835317 54.34068165 -97.63671875 53.01171875 C-99.22105713 52.01084229 -99.22105713 52.01084229 -100.83740234 50.98974609 C-106.60883613 47.35865258 -112.41704139 43.78699928 -118.22387695 40.21289062 C-119.02913818 39.71595703 -119.83439941 39.21902344 -120.6640625 38.70703125 C-121.41461914 38.24635254 -122.16517578 37.78567383 -122.93847656 37.31103516 C-124.79619484 36.12961081 -126.55918007 34.87210621 -128.3359375 33.57421875 C-130.76889663 31.77888603 -130.76889663 31.77888603 -132.95239258 32.20800781 C-135.36667275 33.14182502 -136.61367056 34.25546043 -138.42578125 36.09765625 C-139.05806641 36.73509766 -139.69035156 37.37253906 -140.34179688 38.02929688 C-140.99212891 38.70025391 -141.64246094 39.37121094 -142.3125 40.0625 C-143.2705957 41.02833008 -143.2705957 41.02833008 -144.24804688 42.01367188 C-147.35567277 45.17167468 -150.34563316 48.39005723 -153.24243164 51.74243164 C-156.98727482 56.03869246 -160.92865136 60.1071045 -164.9453125 64.1484375 C-165.67821503 64.8870401 -166.41111755 65.6256427 -167.16622925 66.3866272 C-168.70269642 67.93246894 -170.24056621 69.47691775 -171.77978516 71.02001953 C-174.13255795 73.38258942 -176.47445353 75.7556165 -178.81640625 78.12890625 C-180.31704978 79.63607266 -181.81832965 81.1426058 -183.3203125 82.6484375 C-184.36422653 83.71087173 -184.36422653 83.71087173 -185.42922974 84.79476929 C-191.59386665 90.93127829 -191.59386665 90.93127829 -196 92 C-199.86736016 91.71702243 -202.07188141 90.49432325 -205 88 C-204.16116793 80.45051136 -201.66127242 76.88760612 -196 72 C-195.13375 71.13375 -194.2675 70.2675 -193.375 69.375 C-191.80204884 67.80204884 -190.21878218 66.23934054 -188.625 64.6875 C-186.49689764 62.50872854 -184.49297369 60.2992532 -182.5 58 C-178.4791792 53.37648658 -174.22781158 49.19950392 -169.6328125 45.1484375 C-165.52940339 41.46320548 -161.59851515 37.65337193 -157.73046875 33.72265625 C-156.92868446 32.90907402 -156.92868446 32.90907402 -156.11070251 32.07905579 C-153.90498108 29.83691841 -151.70252311 27.59175647 -149.5090332 25.33764648 C-147.88125669 23.66754065 -146.24416475 22.00703964 -144.60546875 20.34765625 C-143.87096748 19.58522362 -143.87096748 19.58522362 -143.12162781 18.80738831 C-140.3031151 15.96806626 -137.91605583 13.98782296 -134 13 C-131.40843729 13.86385424 -129.36770411 14.72083782 -127 16 C-126.02546875 16.50853516 -126.02546875 16.50853516 -125.03125 17.02734375 C-120.16508439 19.66983122 -120.16508439 19.66983122 -119 22 C-117.33992742 22.68292112 -115.6716362 23.34589401 -114 24 C-111.86813692 25.20949047 -109.75927523 26.4599446 -107.66796875 27.73828125 C-107.07252762 28.10092575 -106.47708649 28.46357025 -105.86360168 28.83720398 C-103.96937587 29.99208973 -102.07843993 31.15224379 -100.1875 32.3125 C-98.92924341 33.08041732 -97.67078162 33.84799852 -96.41210938 34.61523438 C-91.32821917 37.71823397 -86.25392948 40.83019069 -81.23828125 44.04296875 C-78.34533483 46.17240864 -78.34533483 46.17240864 -76 46 C-74.29319053 47.62553283 -72.62339805 49.29115995 -71 51 C-65.19821242 46.91048784 -60.00986729 42.32540242 -54.796875 37.515625 C-51.45136404 34.50653414 -47.96151303 31.7293077 -44.42578125 28.94921875 C-39.89066917 25.30506266 -35.36288497 21.51021113 -31.37109375 17.26953125 C-30 16 -30 16 -28 16 C-28 15.34 -28 14.68 -28 14 C-26.62936722 13.07482287 -25.25346095 12.15672949 -23.85546875 11.2734375 C-19.72842779 8.44098412 -15.87376137 4.99647622 -12.44921875 1.34765625 C-8.72136602 -2.11894535 -4.56473294 -0.67348519 0 0 Z " fill="rgba(0,227,150,1)" transform="translate(482,212)"/>
<path d="M0 0 C1.4835347 -0.00788544 1.4835347 -0.00788544 2.99703979 -0.01593018 C6.26771822 -0.0291387 9.53791033 -0.02038885 12.80859375 -0.01025391 C15.08016046 -0.01227439 17.35172653 -0.01518561 19.62329102 -0.01895142 C24.38466567 -0.02337593 29.14587152 -0.01693945 33.90722656 -0.00292969 C40.01407813 0.01416209 46.12053416 0.00432162 52.22737122 -0.01364708 C56.91820258 -0.02448135 61.60893999 -0.02104017 66.29977417 -0.0132637 C68.55166673 -0.01126072 70.8035678 -0.0137244 73.05545044 -0.02070236 C76.20125974 -0.02831079 79.34642615 -0.01672068 82.4921875 0 C83.89185257 -0.00910904 83.89185257 -0.00910904 85.3197937 -0.0184021 C91.5751111 0.04327511 91.5751111 0.04327511 94.80102539 1.70150757 C97.12676732 4.41610105 97.12551702 6.89145851 97.24609375 10.38818359 C96.62109375 13.26318359 96.62109375 13.26318359 95.24609375 15.38818359 C90.60089837 16.83535698 85.67139616 16.54320455 80.85351562 16.54931641 C79.91472061 16.55428131 78.9759256 16.55924622 78.00868225 16.56436157 C74.91072858 16.57893809 71.81282604 16.5857763 68.71484375 16.59130859 C66.55920409 16.59706203 64.40356444 16.60281974 62.2479248 16.60858154 C57.73217531 16.61907748 53.21644356 16.62492993 48.70068359 16.62841797 C42.91347925 16.63391167 37.12650911 16.65796439 31.33937836 16.68638992 C26.8887259 16.70500473 22.43813012 16.7102212 17.98744202 16.71175385 C15.85358901 16.71478153 13.71973703 16.72281393 11.58592224 16.73593903 C8.60332303 16.75298141 5.62129993 16.75112404 2.63867188 16.74462891 C1.75748184 16.75384369 0.87629181 16.76305847 -0.03160095 16.77255249 C-4.7179623 16.74056131 -7.99686022 16.53591736 -11.75390625 13.38818359 C-11.75390625 12.72818359 -11.75390625 12.06818359 -11.75390625 11.38818359 C-12.41390625 11.38818359 -13.07390625 11.38818359 -13.75390625 11.38818359 C-14.14453125 5.43115234 -14.14453125 5.43115234 -13.75390625 3.38818359 C-10.06137045 -0.79666376 -5.14601437 -0.03349033 0 0 Z " fill="#1C1C1C" transform="translate(94.75390625,330.61181640625)"/>
<path d="M0 0 C0.84961807 -0.00860046 1.69923615 -0.01720093 2.57460022 -0.02606201 C3.50352585 -0.03032196 4.43245148 -0.03458191 5.38952637 -0.03897095 C6.86062111 -0.05123718 6.86062111 -0.05123718 8.36143494 -0.06375122 C11.6097248 -0.08858425 14.85797117 -0.10511192 18.10632324 -0.11953735 C19.21411636 -0.12486103 20.32190948 -0.13018471 21.46327209 -0.13566971 C27.32165841 -0.16238641 33.18002347 -0.18177 39.03845215 -0.19619751 C45.1018233 -0.21288279 51.16465487 -0.2576975 57.22782135 -0.30856895 C61.88084575 -0.34213909 66.53374011 -0.35376342 71.18687439 -0.35942459 C73.42288866 -0.36616055 75.65889368 -0.38144288 77.89479065 -0.4053154 C81.0171896 -0.43676301 84.1381059 -0.43703482 87.26062012 -0.42959595 C88.18954575 -0.44600128 89.11847137 -0.46240662 90.07554626 -0.47930908 C92.4312004 -0.45624523 94.53424383 -0.39374194 96.82507324 0.15390015 C99.63557198 3.24284509 99.83483656 4.587628 99.76257324 8.77890015 C98.82507324 12.15390015 98.82507324 12.15390015 97.36462402 13.84057617 C93.4253336 15.8777729 89.62701592 15.57112039 85.25476074 15.54208374 C84.28524475 15.5473407 83.31572876 15.55259766 82.3168335 15.55801392 C79.11108301 15.57122103 75.90582881 15.56247312 72.70007324 15.55233765 C70.47334701 15.55435817 68.24662142 15.55726943 66.01989746 15.56103516 C61.35267844 15.56545948 56.68563163 15.55902382 52.01843262 15.54501343 C46.0326466 15.52792165 40.04726412 15.53776222 34.06149292 15.55573082 C29.46330723 15.56656562 24.86521737 15.56312367 20.26702881 15.55534744 C18.05979362 15.5533446 15.85254977 15.55580763 13.64532471 15.5627861 C10.56177686 15.57039541 7.47888469 15.55880324 4.39538574 15.54208374 C3.48097717 15.54815643 2.5665686 15.55422913 1.62445068 15.56048584 C-4.52378075 15.49865166 -4.52378075 15.49865166 -7.71447754 13.80932617 C-9.90976778 11.32095441 -10.10930119 9.43517877 -10.17492676 6.15390015 C-8.92492676 3.34140015 -8.92492676 3.34140015 -7.17492676 1.15390015 C-4.44273273 0.2431688 -2.81361589 0.0212401 0 0 Z " fill="#262626" transform="translate(419.1749267578125,144.84609985351563)"/>
<path d="M0 0 C1.26170013 -0.00845947 1.26170013 -0.00845947 2.54888916 -0.01708984 C3.46329773 -0.01304138 4.3777063 -0.00899292 5.31982422 -0.00482178 C6.77409821 -0.01007874 6.77409821 -0.01007874 8.25775146 -0.01544189 C11.46341099 -0.02424639 14.66884994 -0.0184145 17.87451172 -0.01165771 C20.10123741 -0.01300473 22.32796282 -0.01494557 24.5546875 -0.01745605 C29.22187093 -0.02040558 33.88897781 -0.01611512 38.55615234 -0.0067749 C44.54186089 0.00461947 50.52739008 -0.00194091 56.51309204 -0.01391983 C61.11126052 -0.021143 65.7093864 -0.01884838 70.30755615 -0.01366425 C72.51479107 -0.01232902 74.72202984 -0.01397103 76.92926025 -0.01862335 C80.01267763 -0.02369601 83.09580357 -0.01596774 86.17919922 -0.00482178 C87.09360779 -0.00887024 88.00801636 -0.0129187 88.95013428 -0.01708984 C89.7912677 -0.0114502 90.63240112 -0.00581055 91.49902344 0 C92.22757538 0.00075405 92.95612732 0.0015081 93.70675659 0.002285 C96.10396174 0.29763811 97.69971718 0.98870333 99.74951172 2.25396729 C101.15408909 5.06312202 100.99846329 7.14207263 100.74951172 10.25396729 C98.96966767 13.38988299 98.22642965 14.09499464 94.74951172 15.25396729 C93.40046757 15.34585824 92.0473721 15.38450958 90.69520569 15.38768005 C89.46081001 15.39407753 89.46081001 15.39407753 88.20147705 15.40060425 C86.8525235 15.39992447 86.8525235 15.39992447 85.47631836 15.39923096 C84.05152412 15.40426888 84.05152412 15.40426888 82.59794617 15.40940857 C79.45184021 15.41892291 76.30578743 15.42086187 73.15966797 15.42193604 C70.97635374 15.42514807 68.79303972 15.4285121 66.60972595 15.43202209 C62.03074647 15.43801442 57.45178586 15.43986187 52.87280273 15.43927002 C47.00029893 15.43916834 41.12791588 15.45282577 35.25544071 15.47004223 C30.74563539 15.48115033 26.23585939 15.4831896 21.72604179 15.48266029 C19.56066916 15.48384201 17.3952958 15.48827444 15.2299366 15.49599266 C12.20390437 15.5057693 9.17813591 15.50292375 6.15209961 15.49688721 C5.25482147 15.50250671 4.35754333 15.50812622 3.43307495 15.51391602 C2.60732468 15.50972153 1.7815744 15.50552704 0.93080139 15.50120544 C-0.14185172 15.5020226 -0.14185172 15.5020226 -1.23617458 15.50285625 C-3.6115375 15.20935598 -5.20418734 14.47904595 -7.25048828 13.25396729 C-9.34885957 10.55606134 -9.24542251 9.10705986 -9.12548828 5.62896729 C-8.25048828 2.25396729 -8.25048828 2.25396729 -6.4614563 1.05890274 C-4.14266131 0.21471129 -2.45878314 0.00254484 0 0 Z " fill="#242424" transform="translate(418.25048828125,98.74603271484375)"/>
<path d="M0 0 C0.96107666 -0.00175232 1.92215332 -0.00350464 2.91235352 -0.00531006 C6.10117377 -0.00972471 9.28993891 -0.0067917 12.47875977 -0.00341797 C14.688319 -0.00409117 16.89787816 -0.00506134 19.10743713 -0.00631714 C23.74366967 -0.00779363 28.37988297 -0.0056413 33.01611328 -0.00097656 C38.96605939 0.00471736 44.91596036 0.00144354 50.86590481 -0.00454903 C55.4305709 -0.00815877 59.99522625 -0.00701408 64.55989265 -0.00442123 C66.75399849 -0.00375294 68.9481053 -0.004577 71.14221001 -0.00690079 C74.20681218 -0.00943369 77.27134082 -0.00557747 80.3359375 0 C81.2477327 -0.00202423 82.15952789 -0.00404846 83.09895325 -0.00613403 C83.93318817 -0.00331421 84.7674231 -0.00049438 85.62693787 0.00241089 C86.71398341 0.00297643 86.71398341 0.00297643 87.82298946 0.00355339 C89.73266602 0.12939453 89.73266602 0.12939453 92.73266602 1.12939453 C95.21305508 4.84997814 95.19603805 6.72736024 94.73266602 11.12939453 C93.3053894 13.31970215 93.3053894 13.31970215 90.73266602 15.12939453 C87.55603657 15.7270137 84.41855424 15.67562314 81.1940918 15.64697266 C80.22778839 15.65398193 79.26148499 15.66099121 78.26589966 15.66821289 C75.06963409 15.68582631 71.8742532 15.67415607 68.67797852 15.66064453 C66.45604279 15.66333891 64.23410821 15.66722088 62.01217651 15.67224121 C57.35329981 15.67814118 52.69472975 15.66955862 48.03588867 15.65087891 C42.06812621 15.62811593 36.10108434 15.64119294 30.13334846 15.66516876 C25.54363597 15.67963571 20.95409374 15.67501609 16.36437607 15.66465759 C14.16437571 15.66199143 11.96435983 15.66525617 9.76437759 15.67457581 C6.68584636 15.68475283 3.60847437 15.66922209 0.5300293 15.64697266 C-0.37718872 15.65506958 -1.28440674 15.6631665 -2.21911621 15.67150879 C-7.82649008 15.5965609 -10.99554491 14.8612403 -15.26733398 11.12939453 C-15.89233398 8.69189453 -15.89233398 8.69189453 -15.26733398 6.12939453 C-10.85974938 -0.3350629 -7.40484249 -0.01640271 0 0 Z " fill="#262626" transform="translate(96.267333984375,377.87060546875)"/>
<path d="M0 0 C3.03143071 0.20906419 4.04424177 1.04301283 6.25 3.1875 C8.32753291 6.52639218 8.65739689 8.13779328 8 12 C6.57164001 14.15124512 6.57164001 14.15124512 4 16 C0.78876814 16.60248035 -2.3869618 16.54619498 -5.64624023 16.51757812 C-6.6239035 16.5245874 -7.60156677 16.53159668 -8.6088562 16.53881836 C-11.84239054 16.55643108 -15.07505042 16.54476268 -18.30859375 16.53125 C-20.55534534 16.53394418 -22.80209579 16.53782598 -25.04884338 16.54284668 C-29.75899347 16.54874637 -34.46884023 16.54016414 -39.17895508 16.52148438 C-45.21631521 16.49870802 -51.25296357 16.51180711 -57.29029751 16.53577423 C-61.93058125 16.55023047 -66.57069635 16.54562671 -71.21098518 16.53526306 C-73.43693183 16.53259463 -75.66289379 16.53586959 -77.88882256 16.54518127 C-81.00108233 16.55534216 -84.11219115 16.53985068 -87.22436523 16.51757812 C-88.14452927 16.52567505 -89.0646933 16.53377197 -90.01274109 16.54211426 C-94.15813435 16.4871655 -96.46181667 16.31413784 -100.10707092 14.18640137 C-102 12 -102 12 -102.0625 8.5 C-100.87691338 4.59453818 -100.28219407 3.36340066 -97 1 C-93.91566755 0.42656325 -90.87785389 0.50516487 -87.74926758 0.56176758 C-86.81394699 0.56278976 -85.8786264 0.56381195 -84.91496277 0.56486511 C-81.82442358 0.57274793 -78.73486244 0.60873361 -75.64453125 0.64453125 C-73.50030806 0.65453111 -71.35607517 0.66261833 -69.21183777 0.66886902 C-63.56824688 0.6898101 -57.92507897 0.73389516 -52.28167725 0.78363037 C-43.23746935 0.85889402 -34.19300526 0.89679699 -25.14859581 0.93912315 C-21.98145944 0.95689418 -18.81447878 0.98301271 -15.64741516 1.01069641 C-13.71912703 1.02390794 -11.79083828 1.03703036 -9.86254883 1.05004883 C-8.53086166 1.06486801 -8.53086166 1.06486801 -7.17227173 1.07998657 C-5.11470601 1.09127126 -3.05695546 1.05136406 -1 1 C-0.67 0.67 -0.34 0.34 0 0 Z " fill="#111111" transform="translate(511,51)"/>
<path d="M0 0 C176.22 0 352.44 0 534 0 C534.33 0.66 534.66 1.32 535 2 C531.04 1.67 527.08 1.34 523 1 C523 1.66 523 2.32 523 3 C520.625 3.625 520.625 3.625 518 4 C517.34 3.34 516.68 2.68 516 2 C513.19397975 1.80439921 510.48684477 1.73600963 507.67972374 1.75390434 C506.80452686 1.75159665 505.92932997 1.74928897 505.02761197 1.74691135 C502.06239079 1.74157093 499.09738202 1.75062877 496.13217163 1.75949097 C493.99792321 1.75861973 491.863675 1.75687025 489.72942793 1.75431263 C483.83930588 1.74981909 477.94925592 1.75787022 472.05914307 1.76786876 C465.71692397 1.77647219 459.37470924 1.77358531 453.03248596 1.77206421 C442.03572871 1.77101338 431.03899852 1.77724108 420.04224777 1.78853989 C408.5055467 1.80036316 396.96885506 1.8080696 385.43214798 1.81024551 C384.35724227 1.81045173 384.35724227 1.81045173 383.2606213 1.81066212 C379.621536 1.81133876 375.9824507 1.81194154 372.34336539 1.81251587 C346.54986737 1.81671967 320.75638169 1.83020268 294.96289062 1.84912109 C269.90071681 1.86748194 244.83854637 1.88165309 219.77636719 1.89013672 C219.00420333 1.89039977 218.23203948 1.89066282 217.43647672 1.89093385 C209.68227822 1.89357083 201.9280797 1.89612246 194.17388116 1.89861157 C178.3768764 1.90368436 162.57987187 1.90932686 146.78286743 1.91531372 C146.05650424 1.9155883 145.33014104 1.91586288 144.58176685 1.91614578 C96.05450599 1.93455538 47.52725238 1.96628826 -1 2 C-0.67 1.34 -0.34 0.68 0 0 Z " fill="#828282" transform="translate(20,11)"/>
<path d="M0 0 C0.79006943 -0.0033284 1.58013885 -0.0066568 2.39414978 -0.01008606 C4.06264667 -0.01514476 5.73115365 -0.01749471 7.3996582 -0.01733398 C9.95866387 -0.01952596 12.51724217 -0.03770745 15.07617188 -0.05664062 C16.69661311 -0.05957361 18.31705639 -0.06155904 19.9375 -0.0625 C21.08908348 -0.07327827 21.08908348 -0.07327827 22.26393127 -0.08427429 C27.67351184 -0.06086316 27.67351184 -0.06086316 29.90234375 2.16796875 C28.80768799 2.14178467 27.71303223 2.11560059 26.58520508 2.08862305 C22.51331117 1.99793656 18.44150599 1.94065326 14.36889648 1.89331055 C12.60832699 1.86820814 10.84786128 1.83411847 9.08764648 1.79077148 C6.55296196 1.7299276 4.019658 1.70171762 1.484375 1.6796875 C0.70085159 1.65388107 -0.08267181 1.62807465 -0.88993835 1.60148621 C-5.18948896 1.59929311 -6.6259611 1.77650941 -10.0715332 4.63598633 C-10.74015381 5.47154053 -11.40877441 6.30709473 -12.09765625 7.16796875 C-12.42765625 7.49796875 -12.75765625 7.82796875 -13.09765625 8.16796875 C-13.22268267 10.72296184 -13.28369802 13.25227517 -13.30297852 15.80883789 C-13.31782791 17.00874611 -13.31782791 17.00874611 -13.33297729 18.2328949 C-13.36468543 20.88960767 -13.38938633 23.54633835 -13.4140625 26.203125 C-13.434624 28.0401609 -13.45562025 29.87719199 -13.47703552 31.71421814 C-13.53233929 36.55901193 -13.5817118 41.403849 -13.62988281 46.24871826 C-13.68003736 51.188638 -13.73575491 56.12849458 -13.79101562 61.06835938 C-13.89869873 70.76817731 -13.9996072 80.46804864 -14.09765625 90.16796875 C-19.37765625 90.16796875 -24.65765625 90.16796875 -30.09765625 90.16796875 C-30.42765625 73.66796875 -30.75765625 57.16796875 -31.09765625 40.16796875 C-28.9783455 43.34693488 -28.85069595 44.09771407 -28.87060547 47.73120117 C-28.87075653 48.65192917 -28.87090759 49.57265717 -28.87106323 50.52128601 C-28.8813858 51.511996 -28.89170837 52.50270599 -28.90234375 53.5234375 C-28.90517365 54.54021072 -28.90800354 55.55698395 -28.91091919 56.60456848 C-28.92212242 59.85498783 -28.94722739 63.10513256 -28.97265625 66.35546875 C-28.98268586 68.55793873 -28.99181174 70.76041303 -29 72.96289062 C-29.02206225 78.36468929 -29.0565932 83.76628245 -29.09765625 89.16796875 C-24.47765625 89.16796875 -19.85765625 89.16796875 -15.09765625 89.16796875 C-15.09765625 61.44796875 -15.09765625 33.72796875 -15.09765625 5.16796875 C-14.43765625 5.16796875 -13.77765625 5.16796875 -13.09765625 5.16796875 C-12.82953125 4.52859375 -12.56140625 3.88921875 -12.28515625 3.23046875 C-9.78647 -1.10935473 -4.45414809 0.00647341 0 0 Z " fill="#9B9B9B" transform="translate(339.09765625,288.83203125)"/>
<path d="M0 0 C2.71865399 1.88214507 3.02077323 3.08628882 3.8125 6.375 C3.99918125 9.98417085 3.63159712 11.83278206 2 15 C-2.35117121 16.04428109 -4.33128094 16.34674322 -8.375 14.25 C-11 12 -11 12 -12 9 C-11.72428861 6.99124558 -11.39764263 4.98821313 -11 3 C-10.34 3 -9.68 3 -9 3 C-8.67 2.34 -8.34 1.68 -8 1 C-3.6 -1.2 -3.6 -1.2 0 0 Z " fill="#454545" transform="translate(66,331)"/>
<path d="M0 0 C2 1 2 1 3 3 C3.75912409 9.83211679 3.75912409 9.83211679 1.375 13.5 C-1.72140596 15.45562482 -3.39853135 15.60024477 -7 15 C-9.58934155 13.3204271 -10.73737568 12.03818675 -11.5 9.0234375 C-12.29137324 3.58274648 -12.29137324 3.58274648 -11 1 C-7.23048408 -0.25650531 -3.94130449 -0.42697465 0 0 Z " fill="#252525" transform="translate(394,145)"/>
<path d="M0 0 C2 1.625 2 1.625 3 4 C2.93439072 7.739729 2.76345433 10.0603639 0.375 13 C-3.11581787 14.46981805 -5.39148956 13.98413921 -9 13 C-11.45824597 10.78757863 -11.96499501 9.12251745 -12.875 5.9375 C-13 3 -13 3 -11.75 1.1875 C-7.73521255 -1.53682005 -4.56395512 -1.05948958 0 0 Z " fill="#434343" transform="translate(67,379)"/>
<path d="M0 0 C5.4 0.48 5.4 0.48 7.875 2.625 C9.44633561 5.94226407 9.38864211 8.37267365 9 12 C7.9375 14.4375 7.9375 14.4375 6 16 C2.44391735 16.45259234 -0.03225839 16.38200327 -3.375 15.0625 C-5.96027033 11.78119536 -5.82918456 8.07394831 -6 4 C-4.02 3.34 -2.04 2.68 0 2 C0 1.34 0 0.68 0 0 Z " fill="#252525" transform="translate(388,51)"/>
<path d="M0 0 C4.455 0.99 4.455 0.99 9 2 C10.50915865 5.97147013 11.21511839 8.2255738 10.0625 12.375 C8 15 8 15 4.625 16.125 C1 16 1 16 -1.875 14.4375 C-4.49205081 11.43558878 -5.15957397 9.98934934 -5 6 C-3.54996548 3.66294802 -1.94257357 1.98995341 0 0 Z " fill="#414141" transform="translate(387,98)"/>
<path d="M0 0 C0.74093399 -0.0033284 1.48186798 -0.0066568 2.24525452 -0.01008606 C3.81120178 -0.01514478 5.37715981 -0.01749471 6.94311523 -0.01733398 C9.33530478 -0.01951996 11.72703268 -0.03768495 14.11914062 -0.05664062 C15.64192551 -0.05957489 17.16471258 -0.06155947 18.6875 -0.0625 C19.40115219 -0.06968552 20.11480438 -0.07687103 20.8500824 -0.08427429 C24.5371502 -0.06736152 27.27710187 0.13286971 30.41015625 2.16796875 C30.08015625 2.82796875 29.75015625 3.48796875 29.41015625 4.16796875 C28.75015625 3.83796875 28.09015625 3.50796875 27.41015625 3.16796875 C24.64084257 3.01104968 21.89281518 2.90953741 19.12109375 2.8515625 C17.8934581 2.82039085 17.8934581 2.82039085 16.64102173 2.78858948 C14.02248659 2.72312063 11.40384986 2.66422149 8.78515625 2.60546875 C7.01170818 2.56228099 5.23827044 2.51866661 3.46484375 2.47460938 C-0.88661421 2.36744199 -5.23817452 2.26616706 -9.58984375 2.16796875 C-9.85796875 2.80734375 -10.12609375 3.44671875 -10.40234375 4.10546875 C-11.58984375 6.16796875 -11.58984375 6.16796875 -14.58984375 7.16796875 C-14.58984375 28.94796875 -14.58984375 50.72796875 -14.58984375 73.16796875 C-14.91984375 73.16796875 -15.24984375 73.16796875 -15.58984375 73.16796875 C-15.70578683 64.51872042 -15.79458318 55.86974032 -15.84890461 47.21988392 C-15.87497882 43.20319447 -15.91033553 39.18703737 -15.96704102 35.1706543 C-16.02144084 31.29323294 -16.05128066 27.416323 -16.06422997 23.53854942 C-16.07345577 22.06053301 -16.09147233 20.58254404 -16.11849403 19.10474586 C-16.15489463 17.03121501 -16.15978514 14.95978621 -16.1574707 12.88598633 C-16.16857376 11.70684158 -16.17967682 10.52769684 -16.19111633 9.31282043 C-15.40802676 5.21700659 -13.78960046 3.75311767 -10.58984375 1.16796875 C-7.0072599 -0.02622587 -3.72951663 0.00579912 0 0 Z " fill="#727272" transform="translate(403.58984375,305.83203125)"/>
<path d="M0 0 C3.28212246 0.43761633 4.84832931 1.52557871 7 4 C6.67 4.66 6.34 5.32 6 6 C5.01 5.01 5.01 5.01 4 4 C2.13753565 3.69462878 2.13753565 3.69462878 -0.01670837 3.73930359 C-0.85653763 3.73221878 -1.69636688 3.72513397 -2.56164551 3.71783447 C-3.48481567 3.72031189 -4.40798584 3.72278931 -5.35913086 3.7253418 C-6.81537621 3.7176754 -6.81537621 3.7176754 -8.30104065 3.70985413 C-11.5223704 3.6959109 -14.74348734 3.69691846 -17.96484375 3.69921875 C-20.19682394 3.6953344 -22.42880338 3.69100028 -24.66078186 3.68623352 C-29.34411004 3.67876111 -34.02736286 3.67906997 -38.71069336 3.68432617 C-44.72127769 3.69012191 -50.73155399 3.67319205 -56.74208736 3.6499815 C-61.35309156 3.63527109 -65.96402113 3.63436879 -70.57504463 3.63749123 C-72.79148532 3.63697665 -75.00793004 3.63171352 -77.22434807 3.62167931 C-80.32026227 3.60938454 -83.41557058 3.61606483 -86.51147461 3.62768555 C-87.43262054 3.62004181 -88.35376648 3.61239807 -89.30282593 3.60452271 C-90.56679955 3.61504417 -90.56679955 3.61504417 -91.85630798 3.6257782 C-92.58837935 3.62561046 -93.32045073 3.62544271 -94.07470608 3.62526989 C-96.58657642 4.11416846 -97.45798204 4.98739568 -99 7 C-99.7269226 10.10839021 -99.7269226 10.10839021 -100 13 C-100.66 12.67 -101.32 12.34 -102 12 C-101.72812965 8.46568549 -101.51931825 5.78036668 -99.53129578 2.79301453 C-95.72404463 0.09619155 -92.30684001 0.4793115 -87.74926758 0.56176758 C-86.81394699 0.56278976 -85.8786264 0.56381195 -84.91496277 0.56486511 C-81.82442358 0.57274793 -78.73486244 0.60873361 -75.64453125 0.64453125 C-73.50030806 0.65453111 -71.35607517 0.66261833 -69.21183777 0.66886902 C-63.56824688 0.6898101 -57.92507897 0.73389516 -52.28167725 0.78363037 C-43.23746935 0.85889402 -34.19300526 0.89679699 -25.14859581 0.93912315 C-21.98145944 0.95689418 -18.81447878 0.98301271 -15.64741516 1.01069641 C-13.71912703 1.02390794 -11.79083828 1.03703036 -9.86254883 1.05004883 C-8.53086166 1.06486801 -8.53086166 1.06486801 -7.17227173 1.07998657 C-5.11470601 1.09127126 -3.05695546 1.05136406 -1 1 C-0.67 0.67 -0.34 0.34 0 0 Z " fill="#4C4C4C" transform="translate(511,51)"/>
<path d="M0 0 C1.49317245 -0.00065712 1.49317245 -0.00065712 3.01651001 -0.00132751 C6.30645365 0.00076232 9.59588757 0.02410307 12.88574219 0.04760742 C15.16688763 0.05320267 17.44803668 0.0574731 19.72918701 0.06047058 C25.73309278 0.0719249 31.73678083 0.10139738 37.74060059 0.13458252 C43.86707616 0.1652706 49.99358691 0.17897323 56.12011719 0.1940918 C68.14104618 0.22626631 80.16181358 0.27746996 92.18261719 0.34057617 C92.67761719 1.33057617 92.67761719 1.33057617 93.18261719 2.34057617 C91.90919464 2.35088364 90.63577209 2.3611911 89.32376099 2.37181091 C77.34539232 2.4694047 65.36707723 2.57212525 53.38879585 2.67991543 C47.23008163 2.73517033 41.07136268 2.78859443 34.91259766 2.83789062 C28.97333404 2.8854963 23.0341296 2.9378377 17.09493637 2.99351692 C14.82465964 3.01395771 12.55436667 3.03266789 10.28406143 3.04965019 C7.11363074 3.07365606 3.94331264 3.10371582 0.77294922 3.13525391 C-0.17363556 3.14100937 -1.12022034 3.14676483 -2.0954895 3.1526947 C-3.38697906 3.16737793 -3.38697906 3.16737793 -4.70455933 3.18235779 C-5.83006856 3.19203661 -5.83006856 3.19203661 -6.97831535 3.20191097 C-8.91407577 3.23113137 -8.91407577 3.23113137 -10.81738281 4.34057617 C-11.22467509 6.66214214 -11.56176958 8.99745487 -11.81738281 11.34057617 C-12.47738281 11.34057617 -13.13738281 11.34057617 -13.81738281 11.34057617 C-14.20800781 5.38354492 -14.20800781 5.38354492 -13.81738281 3.34057617 C-10.11981523 -0.86955602 -5.15744886 -0.0592162 0 0 Z " fill="#818181" transform="translate(94.8173828125,330.659423828125)"/>
<path d="M0 0 C1.18298172 -0.00287018 1.18298172 -0.00287018 2.38986206 -0.00579834 C4.05239177 -0.00715646 5.71493221 -0.00348606 7.37744141 0.00488281 C9.92764929 0.01561642 12.47715731 0.00496054 15.02734375 -0.0078125 C16.64323073 -0.0064914 18.25911726 -0.00393003 19.875 0 C20.63958527 -0.00404846 21.40417053 -0.00809692 22.19192505 -0.01226807 C27.57474659 0.03568409 27.57474659 0.03568409 29.8046875 2.265625 C28.71003174 2.23944092 27.61537598 2.21325684 26.48754883 2.1862793 C22.41565492 2.09559281 18.34384974 2.03830951 14.27124023 1.9909668 C12.51067074 1.96586439 10.75020503 1.93177472 8.98999023 1.88842773 C6.45530571 1.82758385 3.92200175 1.79937387 1.38671875 1.77734375 C0.60319534 1.75153732 -0.18032806 1.7257309 -0.9875946 1.69914246 C-5.2715223 1.69695733 -6.7050634 1.85003354 -10.10668945 4.73364258 C-10.79593506 5.56919678 -11.48518066 6.40475098 -12.1953125 7.265625 C-13.1853125 7.760625 -13.1853125 7.760625 -14.1953125 8.265625 C-12.73633178 2.67286558 -12.73633178 2.67286558 -10.62939453 1.08691406 C-7.11256547 -0.0997071 -3.66937421 -0.01953268 0 0 Z " fill="#979797" transform="translate(339.1953125,288.734375)"/>
<path d="M0 0 C0.79339783 0.0028299 1.58679565 0.00565979 2.40423584 0.00857544 C4.93110417 0.01974471 7.45761432 0.04484306 9.984375 0.0703125 C11.7005157 0.08034652 13.41666198 0.08947163 15.1328125 0.09765625 C19.33347074 0.11967336 23.5338622 0.15418063 27.734375 0.1953125 C27.734375 0.5253125 27.734375 0.8553125 27.734375 1.1953125 C26.22085449 1.21718628 26.22085449 1.21718628 24.67675781 1.23950195 C20.92672609 1.29755364 17.17729054 1.37478542 13.42773438 1.45776367 C11.80608814 1.49098085 10.18432719 1.51902285 8.5625 1.54174805 C6.22867023 1.57535405 3.89588865 1.6276701 1.5625 1.68359375 C0.83943665 1.68998367 0.11637329 1.6963736 -0.62860107 1.70295715 C-4.87345859 1.82644769 -7.06873037 2.43180942 -10.265625 5.1953125 C-11.255625 5.1953125 -12.245625 5.1953125 -13.265625 5.1953125 C-12.265625 2.1953125 -12.265625 2.1953125 -10.71972656 1.02001953 C-7.16859198 -0.17334822 -3.70143964 -0.04982763 0 0 Z " fill="#949494" transform="translate(466.265625,270.8046875)"/>
<path d="M0 0 C0.66 0.33 1.32 0.66 2 1 C-7.22551253 11.74259681 -7.22551253 11.74259681 -13 15 C-11.79618552 12.50638429 -10.54571278 10.31856917 -9 8 C-8.34 8 -7.68 8 -7 8 C-6.773125 7.4225 -6.54625 6.845 -6.3125 6.25 C-4.66961977 3.4336339 -2.60466773 1.91922886 0 0 Z " fill="#828282" transform="translate(115,90)"/>
<path d="M0 0 C2.97 0.495 2.97 0.495 6 1 C6 1.66 6 2.32 6 3 C4.329375 3.433125 4.329375 3.433125 2.625 3.875 C-1.00291092 4.69241329 -1.00291092 4.69241329 -3 7 C-3.16677282 10.58343976 -3.16677282 10.58343976 -3 14 C-3.66 13.67 -4.32 13.34 -5 13 C-5.4140625 10.93359375 -5.4140625 10.93359375 -5.625 8.4375 C-5.69976562 7.61121094 -5.77453125 6.78492188 -5.8515625 5.93359375 C-5.90054687 5.29550781 -5.94953125 4.65742187 -6 4 C-4.02 3.34 -2.04 2.68 0 2 C0 1.34 0 0.68 0 0 Z " fill="#A8A8A8" transform="translate(388,51)"/>
<path d="M0 0 C2 1.5 2 1.5 3 3 C1.33068803 3 -0.33875637 2.99406847 -2.0078125 2.96484375 C-4.00507614 2.93904883 -6.00282955 2.96778757 -8 3 C-9.96822886 4.96822886 -9.66248381 8.34808709 -10 11 C-10.33 11 -10.66 11 -11 11 C-12.125 3.25 -12.125 3.25 -11 1 C-7.26274081 -0.24575306 -3.91147543 -0.48893443 0 0 Z " fill="#D5D5D5" transform="translate(394,145)"/>
<path d="M0 0 C11.22 0 22.44 0 34 0 C34 0.33 34 0.66 34 1 C22.78 1 11.56 1 0 1 C0 0.67 0 0.34 0 0 Z " fill="#FFFFFF" transform="translate(110,330)"/>
<path d="M0 0 C0.86625 0.37125 0.86625 0.37125 1.75 0.75 C0.76 0.75 -0.23 0.75 -1.25 0.75 C-3.21301592 4.25538557 -4.20902388 7.88351728 -5.25 11.75 C-5.91 11.42 -6.57 11.09 -7.25 10.75 C-6.95535939 6.91967201 -6.71954688 4.39765087 -4.4375 1.25 C-2.25 -0.25 -2.25 -0.25 0 0 Z " fill="#9A9A9A" transform="translate(416.25,52.25)"/>
<path d="M0 0 C0 0.66 0 1.32 0 2 C-1.65 2.66 -3.3 3.32 -5 4 C-5.33 6.31 -5.66 8.62 -6 11 C-6.66 11 -7.32 11 -8 11 C-8.48801743 3.5577342 -8.48801743 3.5577342 -6.25 1 C-4 0 -4 0 0 0 Z " fill="#EAEAEA" transform="translate(89,331)"/>
<path d="M0 0 C0.66 0.33 1.32 0.66 2 1 C1.01 1.33 0.02 1.66 -1 2 C-1.35412344 3.32796291 -1.68521554 4.66216607 -2 6 C-3.5625 7.75 -3.5625 7.75 -5 9 C-5 8.34 -5 7.68 -5 7 C-6.32 7.33 -7.64 7.66 -9 8 C-6.14723863 5.06799526 -3.34920216 2.35684596 0 0 Z " fill="#939393" transform="translate(225,225)"/>
<path d="M0 0 C2.0625 0.4375 2.0625 0.4375 4 1 C-0.75 5.875 -0.75 5.875 -3 7 C-1.125 1.125 -1.125 1.125 0 0 Z " fill="#595959" transform="translate(328,290)"/>
<path d="M0 0 C0.8125 1.6875 0.8125 1.6875 1 4 C-1.4375 6.75 -1.4375 6.75 -4 9 C-4 5.00095031 -2.27413033 3.19799578 0 0 Z " fill="#919191" transform="translate(246,201)"/>
<path d="M0 0 C0.66 0.33 1.32 0.66 2 1 C1.67 1.66 1.34 2.32 1 3 C0.34 3 -0.32 3 -1 3 C-0.690625 3.8971875 -0.690625 3.8971875 -0.375 4.8125 C0 7 0 7 -2 10 C-3.125 4.375 -3.125 4.375 -2 1 C-1.34 0.67 -0.68 0.34 0 0 Z " fill="#9E9E9E" transform="translate(412,100)"/>
<path d="M0 0 C2.72869407 0.03287583 5.2966618 0.56397771 8 1 C8 1.99 8 2.98 8 4 C4.7 3.34 1.4 2.68 -2 2 C-1.34 1.34 -0.68 0.68 0 0 Z " fill="#C9C9C9" transform="translate(474,211)"/>
<path d="M0 0 C5.53846154 -0.36923077 5.53846154 -0.36923077 7.875 1.5 C8.24625 1.995 8.6175 2.49 9 3 C5.58900832 3 2.36911686 2.50854594 -1 2 C-0.67 1.34 -0.34 0.68 0 0 Z " fill="#BDBDBD" transform="translate(388,145)"/>
<path d="M0 0 C0.66 0.33 1.32 0.66 2 1 C-4.45 5.09326923 -4.45 5.09326923 -7.234375 4.62109375 C-7.81703125 4.41613281 -8.3996875 4.21117187 -9 4 C-7.54618103 3.30300448 -6.08677047 2.61766134 -4.625 1.9375 C-3.40683594 1.36322266 -3.40683594 1.36322266 -2.1640625 0.77734375 C-1.44992188 0.52082031 -0.73578125 0.26429687 0 0 Z " fill="#8E8E8E" transform="translate(125,50)"/>
<path d="M0 0 C0.66 0.33 1.32 0.66 2 1 C0.35 2.65 -1.3 4.3 -3 6 C-3.66 5.67 -4.32 5.34 -5 5 C-4.67 4.34 -4.34 3.68 -4 3 C-3.34 3 -2.68 3 -2 3 C-2 2.34 -2 1.68 -2 1 C-1.34 0.67 -0.68 0.34 0 0 Z " fill="#9F9F9F" transform="translate(456,225)"/>
<path d="" fill="#FFFFFF" transform="translate(0,0)"/>
<path d="" fill="#FFFFFF" transform="translate(0,0)"/>
<path d="" fill="#FFFFFF" transform="translate(0,0)"/>
<path d="" fill="#FFFFFF" transform="translate(0,0)"/>
<path d="" fill="#FFFFFF" transform="translate(0,0)"/>
<path d="" fill="#FFFFFF" transform="translate(0,0)"/>
<path d="" fill="#FFFFFF" transform="translate(0,0)"/>
<path d="" fill="#FFFFFF" transform="translate(0,0)"/>
<path d="" fill="#FFFFFF" transform="translate(0,0)"/>
<path d="" fill="#FFFFFF" transform="translate(0,0)"/>
<path d="" fill="#FFFFFF" transform="translate(0,0)"/>
<path d="" fill="#FFFFFF" transform="translate(0,0)"/>
<path d="" fill="#FFFFFF" transform="translate(0,0)"/>
<path d="" fill="#FFFFFF" transform="translate(0,0)"/>
<path d="" fill="#FFFFFF" transform="translate(0,0)"/>
<path d="" fill="#FFFFFF" transform="translate(0,0)"/>
<path d="" fill="#FFFFFF" transform="translate(0,0)"/>
<path d="" fill="#FFFFFF" transform="translate(0,0)"/>
<path d="" fill="#FFFFFF" transform="translate(0,0)"/>
<path d="" fill="#FFFFFF" transform="translate(0,0)"/>
<path d="" fill="#FFFFFF" transform="translate(0,0)"/>
<path d="" fill="#FFFFFF" transform="translate(0,0)"/>
<path d="" fill="#FFFFFF" transform="translate(0,0)"/>
<path d="" fill="#FFFFFF" transform="translate(0,0)"/>
<path d="" fill="#FFFFFF" transform="translate(0,0)"/>
<path d="" fill="#FFFFFF" transform="translate(0,0)"/>
<path d="" fill="#FFFFFF" transform="translate(0,0)"/>
<path d="" fill="#FFFFFF" transform="translate(0,0)"/>
<path d="" fill="#FFFFFF" transform="translate(0,0)"/>
</svg>
