<svg width="20" height="22" viewBox="0 0 20 22" fill="none" xmlns="http://www.w3.org/2000/svg">
<path d="M18.59 21C18.59 17.13 14.74 14 10 14C5.26 14 1.41 17.13 1.41 21M10 11C11.3261 11 12.5979 10.4732 13.5355 9.53553C14.4732 8.59785 15 7.32608 15 6C15 4.67392 14.4732 3.40215 13.5355 2.46447C12.5979 1.52678 11.3261 1 10 1C8.67392 1 7.40215 1.52678 6.46447 2.46447C5.52679 3.40215 5 4.67392 5 6C5 7.32608 5.52679 8.59785 6.46447 9.53553C7.40215 10.4732 8.67392 11 10 11Z" stroke="#F04242" stroke-width="1.5" stroke-linecap="round" stroke-linejoin="round"/>
</svg>
