<svg width="54" height="54" viewBox="0 0 54 54" fill="none" xmlns="http://www.w3.org/2000/svg">
<circle cx="27" cy="27" r="27" fill="white"/>
<mask id="mask0_700_27422" style="mask-type:alpha" maskUnits="userSpaceOnUse" x="0" y="0" width="54" height="54">
<circle cx="27" cy="27" r="27" fill="white"/>
</mask>
<g mask="url(#mask0_700_27422)">
<path fill-rule="evenodd" clip-rule="evenodd" d="M16.8066 37.1714C13.5007 33.291 11.2632 28.5354 11.6371 23.2067C12.7144 7.85305 34.0871 11.2306 38.2446 18.9798C42.402 26.729 41.908 46.3854 36.5349 47.7704C34.3921 48.3228 29.8273 46.9698 25.1814 44.1695L28.0975 64.8H10.8789L16.8066 37.1714Z" fill="#B28B67"/>
<path fill-rule="evenodd" clip-rule="evenodd" d="M30.6513 20.1036C28.3147 21.4106 26.6518 23.8598 24.6501 27.0723C24.1625 26.8807 23.6316 26.7755 23.076 26.7755C20.6987 26.7755 18.7714 28.7028 18.7714 31.0801C18.7714 32.287 19.2681 33.3779 20.0682 34.1596C19.0721 35.5655 17.9559 37.0341 16.6767 38.5496C11.9033 35.6857 8.35301 27.339 12.9107 19.2813C16.8321 3.1411 39.0523 13.1591 43.3273 10.437C44.2617 16.294 41.2477 21.0166 30.6513 20.1036Z" fill="#3C4248"/>
</g>
</svg>
