<svg width="18" height="19" viewBox="0 0 18 19" fill="none" xmlns="http://www.w3.org/2000/svg">
<path d="M14.54 5.92C15.1924 5.92 15.8181 5.66082 16.2795 5.19948C16.7408 4.73814 17 4.11243 17 3.46C17 2.80757 16.7408 2.18186 16.2795 1.72052C15.8181 1.25918 15.1924 1 14.54 1C13.8876 1 13.2619 1.25918 12.8005 1.72052C12.3392 2.18186 12.08 2.80757 12.08 3.46C12.08 4.11243 12.3392 4.73814 12.8005 5.19948C13.2619 5.66082 13.8876 5.92 14.54 5.92ZM3.46 5.92C4.11243 5.92 4.73814 5.66082 5.19948 5.19948C5.66082 4.73814 5.92 4.11243 5.92 3.46C5.92 2.80757 5.66082 2.18186 5.19948 1.72052C4.73814 1.25918 4.11243 1 3.46 1C2.80757 1 2.18186 1.25918 1.72052 1.72052C1.25918 2.18186 1 2.80757 1 3.46C1 4.11243 1.25918 4.73814 1.72052 5.19948C2.18186 5.66082 2.80757 5.92 3.46 5.92ZM14.54 18.22C14.8631 18.22 15.1829 18.1564 15.4814 18.0327C15.7799 17.9091 16.051 17.7279 16.2795 17.4995C16.5079 17.2711 16.6891 16.9999 16.8127 16.7014C16.9364 16.4029 17 16.0831 17 15.76C17 15.4369 16.9364 15.1171 16.8127 14.8186C16.6891 14.5201 16.5079 14.2489 16.2795 14.0205C16.051 13.7921 15.7799 13.6109 15.4814 13.4873C15.1829 13.3636 14.8631 13.3 14.54 13.3C13.8876 13.3 13.2619 13.5592 12.8005 14.0205C12.3392 14.4819 12.08 15.1076 12.08 15.76C12.08 16.4124 12.3392 17.0381 12.8005 17.4995C13.2619 17.9608 13.8876 18.22 14.54 18.22ZM3.46 18.22C3.78305 18.22 4.10294 18.1564 4.4014 18.0327C4.69986 17.9091 4.97105 17.7279 5.19948 17.4995C5.42792 17.2711 5.60912 16.9999 5.73274 16.7014C5.85637 16.4029 5.92 16.0831 5.92 15.76C5.92 15.4369 5.85637 15.1171 5.73274 14.8186C5.60912 14.5201 5.42792 14.2489 5.19948 14.0205C4.97105 13.7921 4.69986 13.6109 4.4014 13.4873C4.10294 13.3636 3.78305 13.3 3.46 13.3C2.80757 13.3 2.18186 13.5592 1.72052 14.0205C1.25918 14.4819 1 15.1076 1 15.76C1 16.4124 1.25918 17.0381 1.72052 17.4995C2.18186 17.9608 2.80757 18.22 3.46 18.22Z" stroke="#FF6464" stroke-width="1.5" stroke-miterlimit="10" stroke-linecap="round" stroke-linejoin="round"/>
</svg>
