<svg width="24" height="24" viewBox="0 0 24 24" fill="none" xmlns="http://www.w3.org/2000/svg">
<path d="M8.15979 22C3.97979 22 3.13979 19.47 4.49979 16.39L8.74979 6.74H8.44979C8.13787 6.74079 7.82884 6.6801 7.54038 6.5614C7.25192 6.4427 6.98968 6.26831 6.76866 6.04821C6.54763 5.82811 6.37214 5.56661 6.25222 5.27865C6.13231 4.99069 6.07032 4.68193 6.06979 4.37C6.06979 3.07 7.12979 2 8.43979 2H15.5498C16.2098 2 16.7998 2.27 17.2298 2.7C17.7898 3.26 18.0698 4.08 17.8598 4.95C17.5898 6.03 16.5498 6.74 15.4398 6.74H15.2798L19.4998 16.4C20.8498 19.48 19.9698 22 15.8298 22H8.15979Z" stroke="#5B5F62" stroke-width="1.5" stroke-linecap="round" stroke-linejoin="round"/>
<path d="M5.93994 13.1199C5.93994 13.1199 8.99994 12.9999 11.9999 13.9999C14.9999 14.9999 17.8299 13.1099 17.8299 13.1099" stroke="#5B5F62" stroke-width="1.5" stroke-linecap="round" stroke-linejoin="round"/>
</svg>
